<svg width="24" height="24" viewBox="0 0 24 24" fill="none" xmlns="http://www.w3.org/2000/svg">
<path d="M3 18V13C3 10.2386 5.23858 8 8 8H16C18.7614 8 21 10.2386 21 13V18" stroke="currentColor" stroke-width="2" stroke-linecap="round" stroke-linejoin="round"/>
<path d="M21 19V20C21 20.5304 20.7893 21.0391 20.4142 21.4142C20.0391 21.7893 19.5304 22 19 22H17C16.4696 22 15.9609 21.7893 15.5858 21.4142C15.2107 21.0391 15 20.5304 15 20V19C15 18.4696 15.2107 17.9609 15.5858 17.5858C15.9609 17.2107 16.4696 17 17 17H19C19.5304 17 20.0391 17.2107 20.4142 17.5858C20.7893 17.9609 21 18.4696 21 19Z" stroke="currentColor" stroke-width="2" stroke-linecap="round" stroke-linejoin="round"/>
<path d="M3 19V20C3 20.5304 3.21071 21.0391 3.58579 21.4142C3.96086 21.7893 4.46957 22 5 22H7C7.53043 22 8.03914 21.7893 8.41421 21.4142C8.78929 21.0391 9 20.5304 9 20V19C9 18.4696 8.78929 17.9609 8.41421 17.5858C8.03914 17.2107 7.53043 17 7 17H5C4.46957 17 3.96086 17.2107 3.58579 17.5858C3.21071 17.9609 3 18.4696 3 19Z" stroke="currentColor" stroke-width="2" stroke-linecap="round" stroke-linejoin="round"/>
</svg>
